<svg xmlns="http://www.w3.org/2000/svg" viewBox="0 0 326 52.5"><defs><style>.a{fill:#0057B8;stroke:#365da8;}</style></defs><title>WP Expert</title><path class="a" d="M17.1,20.17H28a3.28,3.28,0,0,1,3,2L45.31,55.4a3.58,3.58,0,0,1-.13,3.13L38.47,71.06a1.17,1.17,0,0,1-2.1-.09L15.25,23A2,2,0,0,1,17.1,20.17Z" transform="translate(-14.57 -19.67)"/><path class="a" d="M41,20.17H69.13A2.18,2.18,0,0,1,71.21,23l-2.29,6.87a3.3,3.3,0,0,1-3.13,2.26H60.41a1.8,1.8,0,0,0-1.65,2.51L68,56A3.53,3.53,0,0,1,68,59l-5.86,12a1.32,1.32,0,0,1-2.4-.07L39.18,22.93A2,2,0,0,1,41,20.17Z" transform="translate(-14.57 -19.67)"/><path class="a" d="M76,30.64l4.62-8.77a2.83,2.83,0,0,1,3-1.47c4.75.77,16.06,4.15,15.93,18.77-.14,15.82-17,17.5-21.86,17.65a1.86,1.86,0,0,1-1.79-1.17l-4-9.78a1,1,0,0,1,.92-1.34l6.45.12a4.73,4.73,0,0,0,2.56-.7c2.93-1.82,5.21-5.87,1.62-10.05a4.11,4.11,0,0,0-3.13-1.4H77.1A1.27,1.27,0,0,1,76,30.64Z" transform="translate(-14.57 -19.67)"/><path d="M116.84,50,109,20.9h6.49l3.38,14.33c.28,1.21.54,2.48.77,3.8s.45,2.65.67,4,.44,2.62.64,3.87h-1.07c.24-1.25.47-2.54.7-3.87s.48-2.67.74-4,.52-2.59.81-3.8l3.57-14.33h6.19l3.54,14.33c.3,1.21.57,2.48.83,3.8s.5,2.65.73,4,.47,2.62.7,3.87h-1.11q.33-1.87.66-3.87c.23-1.34.46-2.67.7-4s.49-2.59.75-3.8L142.1,20.9h6.5L140.77,50H134l-3.92-15.1c-.39-1.55-.74-3.23-1-5s-.62-3.71-1-5.69h1.5q-.59,2.91-1,5.61c-.26,1.79-.6,3.5-1,5.13L123.64,50Z" transform="translate(-14.57 -19.67)"/><path d="M151.9,50V20.9h11.39a11.86,11.86,0,0,1,5.64,1.24,8.64,8.64,0,0,1,3.59,3.44,10.12,10.12,0,0,1,1.24,5.08,10,10,0,0,1-1.26,5.08,8.73,8.73,0,0,1-3.62,3.42,12.25,12.25,0,0,1-5.71,1.23h-7.48V35.53h6.68a6.33,6.33,0,0,0,2.94-.62,4.07,4.07,0,0,0,1.77-1.71,5.85,5.85,0,0,0,0-5.08,4.12,4.12,0,0,0-1.77-1.68,6.5,6.5,0,0,0-3-.6h-4.47V50Z" transform="translate(-14.57 -19.67)"/><path d="M187,50V20.9h19.81v5H192.94v7h12.77v4.9H192.94V45h13.85v5Z" transform="translate(-14.57 -19.67)"/><path d="M209.56,50l12-17.09v4.51L210.5,20.9h6.89l3.2,4.9c.55.85,1,1.63,1.41,2.35s.75,1.42,1.08,2.09.7,1.37,1.09,2.08h-1.58c.4-.71.77-1.41,1.11-2.08s.71-1.36,1.1-2.09.88-1.5,1.44-2.35l3.24-4.9h6.74L225.34,37.11v-4.3L237.08,50h-7L226,43.89c-.49-.76-.91-1.42-1.25-2s-.64-1.1-.92-1.62l-.95-1.71h.94l-1,1.7c-.29.52-.6,1.07-.94,1.63s-.77,1.23-1.29,2L216.43,50Z" transform="translate(-14.57 -19.67)"/><path d="M240.42,50V20.9H251.8a11.91,11.91,0,0,1,5.65,1.24A8.62,8.62,0,0,1,261,25.58a10.12,10.12,0,0,1,1.24,5.08A10,10,0,0,1,261,35.74a8.67,8.67,0,0,1-3.62,3.42,12.21,12.21,0,0,1-5.7,1.23h-7.48V35.53h6.68a6.33,6.33,0,0,0,2.94-.62,4.1,4.1,0,0,0,1.76-1.71,5.76,5.76,0,0,0,0-5.08,4.15,4.15,0,0,0-1.76-1.68,6.53,6.53,0,0,0-3-.6h-4.48V50Z" transform="translate(-14.57 -19.67)"/><path d="M266.2,50V20.9H286v5H272.18v7H285v4.9H272.18V45H286v5Z" transform="translate(-14.57 -19.67)"/><path d="M290.5,50V20.9h11.42a12.57,12.57,0,0,1,5.65,1.17,8.36,8.36,0,0,1,3.58,3.3,9.76,9.76,0,0,1,1.24,5,9.34,9.34,0,0,1-1.27,5,8.22,8.22,0,0,1-3.65,3.2,13.36,13.36,0,0,1-5.74,1.12h-7.68V34.84H301a7.33,7.33,0,0,0,2.93-.51,3.79,3.79,0,0,0,1.77-1.52,4.6,4.6,0,0,0,.6-2.42,4.73,4.73,0,0,0-.6-2.47,3.83,3.83,0,0,0-1.77-1.54,7,7,0,0,0-2.95-.54h-4.51V50Zm16.27,0-7-13.22h6.45L313.35,50Z" transform="translate(-14.57 -19.67)"/><path d="M315.32,25.9v-5h23.75v5H330.2V50h-6V25.9Z" transform="translate(-14.57 -19.67)"/><path d="M107.69,71.66V60.74h7.43v1.88h-5.18v2.6h4.79v1.84h-4.79v2.72h5.19v1.88Z" transform="translate(-14.57 -19.67)"/><path d="M116.17,71.66l4.5-6.41v1.69l-4.15-6.2h2.59l1.2,1.84c.2.32.38.61.52.88s.29.54.41.79.26.51.41.78h-.6c.16-.27.29-.53.42-.78s.27-.52.42-.79a10.27,10.27,0,0,1,.53-.88l1.22-1.84h2.53l-4.08,6.08V65.21l4.4,6.45h-2.64l-1.52-2.3c-.19-.28-.34-.53-.47-.74s-.24-.42-.35-.61l-.35-.64h.35l-.36.64-.35.61c-.13.21-.29.46-.49.74l-1.56,2.3Z" transform="translate(-14.57 -19.67)"/><path d="M127.74,71.66V60.74H132a4.48,4.48,0,0,1,2.12.47,3.27,3.27,0,0,1,1.34,1.29,3.8,3.8,0,0,1,.47,1.9,3.71,3.71,0,0,1-.48,1.91,3.21,3.21,0,0,1-1.35,1.28,4.57,4.57,0,0,1-2.14.46h-2.81V66.23h2.51a2.42,2.42,0,0,0,1.1-.23,1.57,1.57,0,0,0,.66-.64,2,2,0,0,0,.22-1,1.93,1.93,0,0,0-.22-1,1.49,1.49,0,0,0-.66-.63,2.46,2.46,0,0,0-1.11-.23H130v9.07Z" transform="translate(-14.57 -19.67)"/><path d="M137.41,71.66V60.74h7.43v1.88h-5.19v2.6h4.79v1.84h-4.79v2.72h5.19v1.88Z" transform="translate(-14.57 -19.67)"/><path d="M146.52,71.66V60.74h4.29a4.7,4.7,0,0,1,2.11.44,3.13,3.13,0,0,1,1.35,1.24,3.66,3.66,0,0,1,.46,1.88,3.48,3.48,0,0,1-.48,1.86,3.07,3.07,0,0,1-1.36,1.2,5.07,5.07,0,0,1-2.16.42h-2.88V66h2.61a2.71,2.71,0,0,0,1.1-.19,1.42,1.42,0,0,0,.66-.57,1.73,1.73,0,0,0,.23-.91,1.77,1.77,0,0,0-.23-.92,1.39,1.39,0,0,0-.66-.58,2.56,2.56,0,0,0-1.11-.21h-1.69v9.07Zm6.1,0-2.62-5h2.42l2.67,5Z" transform="translate(-14.57 -19.67)"/><path d="M155.83,62.62V60.74h8.91v1.88h-3.33v9h-2.24v-9Z" transform="translate(-14.57 -19.67)"/><path d="M171.94,71.66,169,60.74h2.43l1.27,5.38c.11.45.21.93.29,1.42s.17,1,.25,1.5.17,1,.25,1.45h-.41c.09-.47.18-.95.27-1.45s.18-1,.27-1.5.2-1,.3-1.42l1.34-5.38h2.33l1.32,5.38c.11.45.22.93.31,1.42s.19,1,.28,1.5.17,1,.26,1.45h-.42c.09-.47.17-.95.25-1.45s.17-1,.26-1.5.19-1,.29-1.42l1.26-5.38h2.44l-2.93,10.92h-2.55L176.9,66c-.15-.58-.27-1.21-.38-1.89s-.24-1.39-.37-2.13h.56c-.15.72-.27,1.42-.37,2.1s-.23,1.31-.38,1.92l-1.47,5.67Z" transform="translate(-14.57 -19.67)"/><path d="M189.5,71.81a5.07,5.07,0,0,1-2.61-.67,4.71,4.71,0,0,1-1.83-1.92,7.14,7.14,0,0,1,0-6,4.8,4.8,0,0,1,1.83-1.93,5.47,5.47,0,0,1,5.21,0,4.8,4.8,0,0,1,1.83,1.93,7.16,7.16,0,0,1,0,6.05,4.84,4.84,0,0,1-1.83,1.92A5.16,5.16,0,0,1,189.5,71.81Zm0-2a2.7,2.7,0,0,0,1.48-.41,2.74,2.74,0,0,0,1-1.23,5.78,5.78,0,0,0,0-4A2.74,2.74,0,0,0,191,63a2.62,2.62,0,0,0-1.48-.42A2.68,2.68,0,0,0,188,63a2.91,2.91,0,0,0-1,1.23,5.62,5.62,0,0,0,0,4,2.82,2.82,0,0,0,1,1.22A2.68,2.68,0,0,0,189.5,69.82Z" transform="translate(-14.57 -19.67)"/><path d="M196.18,71.66V60.74h4.28a4.74,4.74,0,0,1,2.12.44,3.1,3.1,0,0,1,1.34,1.24,3.67,3.67,0,0,1,.47,1.88,3.48,3.48,0,0,1-.48,1.86,3,3,0,0,1-1.37,1.2,5,5,0,0,1-2.15.42h-2.88V66h2.61a2.71,2.71,0,0,0,1.1-.19,1.42,1.42,0,0,0,.66-.57,1.73,1.73,0,0,0,.22-.91,1.77,1.77,0,0,0-.22-.92,1.39,1.39,0,0,0-.66-.58,2.56,2.56,0,0,0-1.11-.21h-1.69v9.07Zm6.1,0-2.62-5h2.42l2.67,5Z" transform="translate(-14.57 -19.67)"/><path d="M208.25,60.74V71.66H206V60.74Zm1.6,10.92H207V69.74h2.71a3.81,3.81,0,0,0,1.78-.38,2.44,2.44,0,0,0,1.07-1.17,4.84,4.84,0,0,0,.36-2,4.74,4.74,0,0,0-.36-2A2.4,2.4,0,0,0,211.52,63a3.73,3.73,0,0,0-1.76-.38H207V60.74h2.92a5.72,5.72,0,0,1,2.83.66,4.35,4.35,0,0,1,1.82,1.88,6.13,6.13,0,0,1,.64,2.91,6.29,6.29,0,0,1-.63,2.92A4.47,4.47,0,0,1,212.71,71,5.84,5.84,0,0,1,209.85,71.66Z" transform="translate(-14.57 -19.67)"/><path d="M216.77,71.66V60.74H221a4.44,4.44,0,0,1,2.11.47,3.24,3.24,0,0,1,1.35,1.29,3.79,3.79,0,0,1,.46,1.9,3.71,3.71,0,0,1-.47,1.91,3.24,3.24,0,0,1-1.36,1.28,4.54,4.54,0,0,1-2.14.46h-2.8V66.23h2.5a2.39,2.39,0,0,0,1.1-.23,1.6,1.6,0,0,0,.67-.64,2.09,2.09,0,0,0,.22-1,2,2,0,0,0-.22-1,1.52,1.52,0,0,0-.67-.63,2.39,2.39,0,0,0-1.1-.23H219v9.07Z" transform="translate(-14.57 -19.67)"/><path d="M226.44,71.66V60.74h4.28a4.77,4.77,0,0,1,2.12.44,3.16,3.16,0,0,1,1.34,1.24,3.67,3.67,0,0,1,.47,1.88,3.48,3.48,0,0,1-.48,1.86,3.1,3.1,0,0,1-1.37,1.2,5,5,0,0,1-2.15.42h-2.88V66h2.61a2.7,2.7,0,0,0,1.09-.19,1.4,1.4,0,0,0,.67-.57,1.73,1.73,0,0,0,.22-.91,1.77,1.77,0,0,0-.22-.92,1.37,1.37,0,0,0-.67-.58,2.54,2.54,0,0,0-1.1-.21h-1.69v9.07Zm6.1,0-2.63-5h2.42l2.67,5Z" transform="translate(-14.57 -19.67)"/><path d="M236.26,71.66V60.74h7.43v1.88H238.5v2.6h4.79v1.84H238.5v2.72h5.2v1.88Z" transform="translate(-14.57 -19.67)"/><path d="M249.41,71.82a6,6,0,0,1-2.31-.41,3.34,3.34,0,0,1-1.51-1.22,3.51,3.51,0,0,1-.56-2h2.18a1.63,1.63,0,0,0,.31.94,1.81,1.81,0,0,0,.77.58,2.93,2.93,0,0,0,1.11.19,3,3,0,0,0,1-.17,1.6,1.6,0,0,0,.7-.5,1.14,1.14,0,0,0,.24-.72,1,1,0,0,0-.21-.63,1.68,1.68,0,0,0-.64-.44,5.87,5.87,0,0,0-1-.32l-1.19-.29a4.81,4.81,0,0,1-2.22-1.07,2.49,2.49,0,0,1-.79-1.92,2.9,2.9,0,0,1,.53-1.72A3.53,3.53,0,0,1,247.29,61a5.29,5.29,0,0,1,2.13-.41,5,5,0,0,1,2.12.42A3.3,3.3,0,0,1,253,62.17a3.1,3.1,0,0,1,.52,1.74h-2.15a1.43,1.43,0,0,0-.57-1.07,2.21,2.21,0,0,0-1.35-.38,2.59,2.59,0,0,0-1,.17,1.5,1.5,0,0,0-.63.45,1.13,1.13,0,0,0-.21.67.9.9,0,0,0,.23.64,1.69,1.69,0,0,0,.63.44,5.53,5.53,0,0,0,.92.28l1,.25a6.29,6.29,0,0,1,1.33.43,4.21,4.21,0,0,1,1.05.64,2.79,2.79,0,0,1,.67.9,2.84,2.84,0,0,1,.23,1.19,3.1,3.1,0,0,1-.5,1.75,3.21,3.21,0,0,1-1.45,1.14A5.77,5.77,0,0,1,249.41,71.82Z" transform="translate(-14.57 -19.67)"/><path d="M259.22,71.82a6,6,0,0,1-2.3-.41,3.29,3.29,0,0,1-1.51-1.22,3.59,3.59,0,0,1-.57-2H257a1.7,1.7,0,0,0,.31.94,1.87,1.87,0,0,0,.77.58,3,3,0,0,0,1.11.19,3,3,0,0,0,1.05-.17,1.6,1.6,0,0,0,.7-.5,1.09,1.09,0,0,0,.25-.72.91.91,0,0,0-.22-.63,1.64,1.64,0,0,0-.63-.44,5.75,5.75,0,0,0-1.05-.32l-1.18-.29a4.9,4.9,0,0,1-2.23-1.07,2.52,2.52,0,0,1-.78-1.92,2.83,2.83,0,0,1,.53-1.72A3.5,3.5,0,0,1,257.1,61a5.29,5.29,0,0,1,2.13-.41,5,5,0,0,1,2.12.42,3.19,3.19,0,0,1,1.41,1.16,3.11,3.11,0,0,1,.53,1.74h-2.15a1.43,1.43,0,0,0-.57-1.07,2.23,2.23,0,0,0-1.35-.38,2.64,2.64,0,0,0-1,.17,1.41,1.41,0,0,0-.62.45,1.08,1.08,0,0,0-.22.67,1,1,0,0,0,.23.64,1.81,1.81,0,0,0,.64.44,5.14,5.14,0,0,0,.91.28l1,.25a6.68,6.68,0,0,1,1.33.43,4,4,0,0,1,1,.64,2.65,2.65,0,0,1,.67.9,2.84,2.84,0,0,1,.24,1.19,3,3,0,0,1-.51,1.75,3.16,3.16,0,0,1-1.45,1.14A5.77,5.77,0,0,1,259.22,71.82Z" transform="translate(-14.57 -19.67)"/><path d="M272.52,71.82a6,6,0,0,1-2.31-.41,3.34,3.34,0,0,1-1.51-1.22,3.51,3.51,0,0,1-.56-2h2.17a1.71,1.71,0,0,0,.32.94,1.81,1.81,0,0,0,.77.58,2.92,2.92,0,0,0,1.1.19,3.06,3.06,0,0,0,1.06-.17,1.6,1.6,0,0,0,.7-.5,1.14,1.14,0,0,0,.24-.72,1,1,0,0,0-.21-.63,1.76,1.76,0,0,0-.64-.44,5.87,5.87,0,0,0-1-.32l-1.19-.29a4.81,4.81,0,0,1-2.22-1.07,2.49,2.49,0,0,1-.79-1.92,2.9,2.9,0,0,1,.53-1.72A3.53,3.53,0,0,1,270.4,61a5.29,5.29,0,0,1,2.13-.41,5,5,0,0,1,2.12.42,3.3,3.3,0,0,1,1.41,1.16,3.18,3.18,0,0,1,.52,1.74h-2.15a1.43,1.43,0,0,0-.57-1.07,2.23,2.23,0,0,0-1.35-.38,2.59,2.59,0,0,0-1,.17,1.44,1.44,0,0,0-.63.45,1.13,1.13,0,0,0-.21.67.9.9,0,0,0,.23.64,1.69,1.69,0,0,0,.63.44,5.26,5.26,0,0,0,.92.28l1,.25a6.29,6.29,0,0,1,1.33.43,4,4,0,0,1,1,.64,2.68,2.68,0,0,1,.68.9,3,3,0,0,1,.23,1.19,3.1,3.1,0,0,1-.5,1.75,3.21,3.21,0,0,1-1.45,1.14A5.77,5.77,0,0,1,272.52,71.82Z" transform="translate(-14.57 -19.67)"/><path d="M278.3,71.66V60.74h7.42v1.88h-5.18v2.6h4.79v1.84h-4.79v2.72h5.19v1.88Z" transform="translate(-14.57 -19.67)"/><path d="M287.41,71.66V60.74h4.28a4.74,4.74,0,0,1,2.12.44,3.18,3.18,0,0,1,1.35,1.24,3.77,3.77,0,0,1,.46,1.88,3.48,3.48,0,0,1-.48,1.86,3,3,0,0,1-1.37,1.2,5,5,0,0,1-2.15.42h-2.88V66h2.61a2.71,2.71,0,0,0,1.1-.19,1.42,1.42,0,0,0,.66-.57,1.73,1.73,0,0,0,.22-.91,1.77,1.77,0,0,0-.22-.92,1.39,1.39,0,0,0-.66-.58,2.56,2.56,0,0,0-1.11-.21h-1.69v9.07Zm6.1,0-2.62-5h2.42l2.67,5Z" transform="translate(-14.57 -19.67)"/><path d="M300.12,71.66l-3.83-10.92h2.48L300.52,66c.21.66.42,1.39.64,2.18s.45,1.66.69,2.6h-.52c.24-1,.47-1.82.68-2.61s.41-1.51.61-2.17l1.69-5.28h2.46L303,71.66Z" transform="translate(-14.57 -19.67)"/><path d="M310.25,60.74V71.66H308V60.74Z" transform="translate(-14.57 -19.67)"/><path d="M316.93,71.81a5,5,0,0,1-2.61-.67,4.63,4.63,0,0,1-1.82-1.92,7.24,7.24,0,0,1,0-6,4.74,4.74,0,0,1,1.83-1.93,5.13,5.13,0,0,1,2.6-.66,5.76,5.76,0,0,1,1.74.26,4.53,4.53,0,0,1,1.44.77,4.35,4.35,0,0,1,1,1.23,4.7,4.7,0,0,1,.52,1.65h-2.26a2.38,2.38,0,0,0-.3-.81,2.19,2.19,0,0,0-.52-.61,2.26,2.26,0,0,0-.72-.38,3.06,3.06,0,0,0-.88-.13,2.7,2.7,0,0,0-1.51.43,2.79,2.79,0,0,0-1,1.25,4.8,4.8,0,0,0-.35,2,5,5,0,0,0,.35,2,2.74,2.74,0,0,0,1,1.23,2.77,2.77,0,0,0,1.51.41,2.73,2.73,0,0,0,.87-.13,2.45,2.45,0,0,0,.72-.37,2.07,2.07,0,0,0,.53-.61,2.19,2.19,0,0,0,.3-.81h2.27a4.61,4.61,0,0,1-.47,1.5,4.55,4.55,0,0,1-1,1.25,4.35,4.35,0,0,1-1.43.85A5.11,5.11,0,0,1,316.93,71.81Z" transform="translate(-14.57 -19.67)"/><path d="M323.2,71.66V60.74h7.42v1.88h-5.18v2.6h4.79v1.84h-4.79v2.72h5.19v1.88Z" transform="translate(-14.57 -19.67)"/><path d="M336.34,71.82a6,6,0,0,1-2.3-.41,3.37,3.37,0,0,1-1.52-1.22,3.68,3.68,0,0,1-.56-2h2.18a1.7,1.7,0,0,0,.31.94,1.81,1.81,0,0,0,.77.58,2.93,2.93,0,0,0,1.11.19,3,3,0,0,0,1.05-.17,1.6,1.6,0,0,0,.7-.5,1.09,1.09,0,0,0,.25-.72.91.91,0,0,0-.22-.63,1.64,1.64,0,0,0-.63-.44,6,6,0,0,0-1.05-.32l-1.18-.29A4.9,4.9,0,0,1,333,65.8a2.52,2.52,0,0,1-.79-1.92,2.84,2.84,0,0,1,.54-1.72A3.5,3.5,0,0,1,334.22,61a5.29,5.29,0,0,1,2.13-.41,5,5,0,0,1,2.12.42,3.3,3.3,0,0,1,1.41,1.16,3.19,3.19,0,0,1,.53,1.74h-2.15a1.43,1.43,0,0,0-.57-1.07,2.23,2.23,0,0,0-1.35-.38,2.64,2.64,0,0,0-1,.17,1.41,1.41,0,0,0-.62.45,1.08,1.08,0,0,0-.22.67,1,1,0,0,0,.23.64,1.73,1.73,0,0,0,.64.44,5.14,5.14,0,0,0,.91.28l1,.25a6.68,6.68,0,0,1,1.33.43,4,4,0,0,1,1,.64,2.65,2.65,0,0,1,.67.9,2.84,2.84,0,0,1,.24,1.19,3,3,0,0,1-.51,1.75,3.21,3.21,0,0,1-1.45,1.14A5.77,5.77,0,0,1,336.34,71.82Z" transform="translate(-14.57 -19.67)"/></svg>