<svg xmlns="http://www.w3.org/2000/svg" version="1.1" xmlns:xlink="http://www.w3.org/1999/xlink" id="Шар_1" x="0px" y="0px" viewBox="0 0 85 52.5" style="enable-background:new 0 0 85 52.5;" xml:space="preserve" width="85" height="52.5"><metadata><rdf:RDF xmlns:rdf="http://www.w3.org/1999/02/22-rdf-syntax-ns#" xmlns:dc="http://purl.org/dc/elements/1.1/"><rdf:Description><dc:creator>RealFaviconGenerator</dc:creator><dc:source>https://realfavicongenerator.net</dc:source></rdf:Description></rdf:RDF></metadata><style type="text/css">
	.st0{fill:#155DFC;stroke:#365DA8;}
</style><title>fAVICON</title><path class="st0" d="M2.5,0.5h10.9c1.3,0,2.5,0.8,3,2l14.3,33.2c0.4,1,0.4,2.2-0.1,3.1l-6.7,12.5c-0.3,0.6-1,0.8-1.6,0.5
	c-0.2-0.1-0.4-0.3-0.5-0.6L0.7,3.3c-0.4-1,0-2.2,1-2.6C2,0.6,2.2,0.5,2.5,0.5z"></path><path class="st0" d="M26.4,0.5h28.1c1.2,0,2.2,1,2.2,2.2c0,0.2,0,0.5-0.1,0.7l-2.3,6.9c-0.4,1.3-1.7,2.3-3.1,2.3h-5.4
	c-1,0-1.8,0.8-1.8,1.8c0,0.2,0,0.5,0.1,0.7l9.2,21.4c0.4,0.9,0.4,2,0,2.9l-5.9,12c-0.3,0.7-1.1,0.9-1.8,0.6
	c-0.3-0.1-0.5-0.4-0.6-0.7L24.6,3.3c-0.4-1,0.1-2.2,1.1-2.6C25.9,0.6,26.2,0.5,26.4,0.5z"></path><path class="st0" d="M61.4,11l4.6-8.8c0.6-1.1,1.8-1.7,3-1.5C73.8,1.5,85.1,4.9,85,19.5C84.8,35.3,68,37,63.1,37.2
	c-0.8,0-1.5-0.4-1.8-1.2l-4-9.8c-0.2-0.5,0.1-1.1,0.6-1.3c0.1,0,0.2-0.1,0.3-0.1l6.4,0.1c0.9,0,1.8-0.2,2.6-0.7
	c2.9-1.8,5.2-5.9,1.6-10.1c-0.8-0.9-1.9-1.4-3.1-1.4h-3.2c-0.7,0-1.3-0.6-1.2-1.3C61.3,11.3,61.3,11.2,61.4,11z"></path></svg>